<svg width="64" height="66" viewBox="0 0 64 66" fill="none" xmlns="http://www.w3.org/2000/svg">
<path d="M49.7348 43.3675C46.8087 48.335 41.7552 52.2965 36.1724 54.269C30.591 56.241 24.5958 56.1895 19.7239 53.3197C14.852 50.4499 11.9005 45.2313 10.9194 39.3936C9.93812 33.5545 10.9531 27.214 13.8792 22.2466C16.8053 17.2791 21.8588 13.3176 27.4416 11.3451C33.023 9.3731 39.0182 9.42457 43.8901 12.2944C48.762 15.1642 51.7135 20.3828 52.6945 26.2205C53.6758 32.0596 52.6609 38.4001 49.7348 43.3675Z" stroke="#331B3B" stroke-opacity="0.64" stroke-width="2"/>
<g clip-path="url(#clip0_230_2)">
<path fill-rule="evenodd" clip-rule="evenodd" d="M33.6282 42.8071V33.8071H36.3606L36.8069 29.8071H33.6282V27.8589C33.6282 26.8289 33.6546 25.8071 35.0938 25.8071H36.5516V22.9473C36.5516 22.9043 35.2994 22.8071 34.0326 22.8071C31.3869 22.8071 29.7303 24.4643 29.7303 27.5073V29.8071H26.8069V33.8071H29.7303V42.8071H33.6282Z" fill="#331B3B"/>
</g>
<defs>
<clipPath id="clip0_230_2">
<rect width="10" height="20" fill="white" transform="translate(26.8069 22.8071)"/>
</clipPath>
</defs>
</svg>
