<svg width="26" height="32" viewBox="0 0 26 32" fill="none" xmlns="http://www.w3.org/2000/svg">
<path d="M2.26682 20.3092V22.783C2.26682 27.8504 6.33664 32 11.3641 32H14.7157C19.7431 32 23.813 27.8504 23.813 22.783V20.3092C24.611 20.3092 25.2494 19.6708 25.2494 18.8728V18.6733C25.2494 17.8753 24.611 17.2369 23.813 17.2369V10.813C23.813 4.86783 18.985 0 13 0C7.05485 0 2.18702 4.82793 2.18702 10.813V17.2369C1.38901 17.2369 0.75061 17.8753 0.75061 18.6733V18.8329C0.830411 19.6309 1.46881 20.2693 2.26682 20.3092ZM14.7556 31.1621H11.404C6.81545 31.1621 3.10472 27.3716 3.10472 22.7431V20.2693H23.0947V22.7431C23.0548 27.4115 19.3441 31.1621 14.7556 31.1621ZM13.0798 0.798005C18.586 0.798005 23.0947 5.26683 23.0947 10.813V17.2369H18.0274V16.1995C18.7057 16.1995 19.9825 16.0798 20.8603 15.202C22.0573 14.0449 21.9376 12.0499 21.9376 11.9701C21.9376 11.7706 21.778 11.611 21.5785 11.611C21.4987 11.611 19.5037 11.4115 18.3067 12.5686C18.187 12.6883 18.1072 12.7681 18.0274 12.8878V11.8105C18.3466 11.4913 19.1446 10.6135 19.1446 9.53616C19.1446 8.21945 17.9476 7.18205 17.8678 7.14215C17.7082 7.02244 17.5087 7.02244 17.3491 7.14215C17.3092 7.18205 16.1122 8.21945 16.1122 9.53616C16.1122 10.5736 16.8703 11.4514 17.2294 11.7706V12.8479C17.1895 12.7681 17.1097 12.6883 17.0299 12.6484C15.8728 11.4514 13.8778 11.5711 13.798 11.5711C13.5985 11.5711 13.4389 11.7307 13.4389 11.9302C13.4389 12.01 13.2394 14.005 14.3965 15.202C15.2344 16.0798 16.5511 16.2394 17.1895 16.2793V17.2369H8.81046V16.1995C9.48877 16.1995 10.7656 16.0798 11.6434 15.202C12.8404 14.0449 12.7207 12.0499 12.7207 11.9701C12.7207 11.7706 12.5611 11.611 12.3616 11.611C12.2818 11.611 10.2868 11.4115 9.08976 12.5686C8.97006 12.6883 8.89026 12.7681 8.81046 12.8878V11.8105C9.12966 11.4913 9.92767 10.6135 9.92767 9.53616C9.92767 8.21945 8.73066 7.18205 8.65086 7.14215C8.49126 7.02244 8.29176 7.02244 8.13216 7.14215C8.09226 7.18205 6.89525 8.21945 6.89525 9.53616C6.89525 10.5736 7.65335 11.4514 8.01246 11.7706V12.8479C7.97256 12.7681 7.89276 12.6883 7.81295 12.6484C6.65585 11.4514 4.66083 11.5711 4.58103 11.5711C4.38153 11.5711 4.22193 11.7307 4.22193 11.9302C4.22193 12.01 4.02243 14.005 5.17954 15.202C6.01744 16.0798 7.33415 16.2394 7.97256 16.2793V17.2369H3.06482V10.813C3.06482 5.30673 7.53365 0.798005 13.0798 0.798005ZM17.2294 15.4414C16.6708 15.4015 15.6334 15.2818 14.995 14.6035C14.3566 13.9252 14.2369 12.8878 14.2369 12.3292C14.7955 12.3691 15.8329 12.4888 16.4713 13.1671C17.0698 13.7656 17.1895 14.7232 17.2294 15.2818V15.4414ZM17.6284 11.1322C17.3491 10.813 16.9102 10.2544 16.9102 9.61596C16.9102 8.97756 17.3092 8.41895 17.5885 8.09975C17.8678 8.41895 18.3067 8.97756 18.3067 9.61596C18.3466 10.2145 17.9077 10.7731 17.6284 11.1322ZM18.0274 15.4015C18.0673 14.8429 18.187 13.8055 18.8653 13.1671C19.5436 12.5287 20.581 12.409 21.1396 12.409C21.0997 12.9676 20.98 14.005 20.3017 14.6434C19.6234 15.2818 18.586 15.4015 18.0274 15.4015ZM8.01246 15.4414C7.45385 15.4015 6.41645 15.2818 5.77804 14.6035C5.13964 13.9252 5.01994 12.8878 5.01994 12.3292C5.57854 12.3691 6.61595 12.4888 7.25435 13.1671C7.85285 13.7656 7.97256 14.7232 8.01246 15.2818V15.4414ZM8.41146 11.1322C8.13216 10.813 7.69325 10.2544 7.69325 9.61596C7.69325 8.97756 8.09226 8.41895 8.37156 8.09975C8.65086 8.41895 9.08976 8.97756 9.08976 9.61596C9.12966 10.2145 8.69076 10.7731 8.41146 11.1322ZM8.81046 15.4015C8.85036 14.8429 8.97006 13.8055 9.64837 13.1671C10.3267 12.5287 11.3641 12.409 11.9227 12.409C11.8828 12.9676 11.7631 14.005 11.0848 14.6434C10.4065 15.2818 9.36906 15.4015 8.81046 15.4015ZM1.62842 18.6733C1.62842 18.3142 1.90772 18.0349 2.26682 18.0349H23.813C24.1721 18.0349 24.4514 18.3142 24.4514 18.6733V18.8329C24.4514 19.192 24.1721 19.4713 23.813 19.4713H2.26682C1.90772 19.4713 1.62842 19.192 1.62842 18.8329V18.6733Z" fill="black"/>
</svg>
