<svg width="202" height="29" viewBox="0 0 202 29" fill="none" xmlns="http://www.w3.org/2000/svg">
<path d="M17.2578 23H14.2109V18.875H3.5V23H0.453125V14.5977C0.453125 13.3711 0.664062 12.2422 1.08594 11.2109C1.50781 10.1797 2.09375 9.29297 2.84375 8.55078C3.59375 7.80859 4.48047 7.23047 5.50391 6.81641C6.52734 6.40234 7.64453 6.19531 8.85547 6.19531H15.7227C15.9336 6.19531 16.1328 6.23437 16.3203 6.3125C16.5078 6.39063 16.6719 6.5 16.8125 6.64062C16.9531 6.78125 17.0625 6.94531 17.1406 7.13281C17.2188 7.32031 17.2578 7.51953 17.2578 7.73047V23ZM3.5 15.8281H14.2109V9.24219H8.85547C8.76172 9.24219 8.5625 9.25781 8.25781 9.28906C7.96094 9.3125 7.61328 9.37891 7.21484 9.48828C6.82422 9.59766 6.41016 9.76562 5.97266 9.99219C5.53516 10.2188 5.13281 10.5312 4.76562 10.9297C4.39844 11.3281 4.09375 11.8281 3.85156 12.4297C3.61719 13.0234 3.5 13.7461 3.5 14.5977V15.8281ZM36.4822 23H22.5837C22.365 23 22.1619 22.9609 21.9744 22.8828C21.7869 22.8047 21.6228 22.6992 21.4822 22.5664C21.3494 22.4258 21.2439 22.2617 21.1658 22.0742C21.0877 21.8867 21.0486 21.6836 21.0486 21.4648V6.19531H24.0955V19.9531H36.4822V23ZM42.0308 23H38.9839V6.19531H42.0308V23ZM65.3919 23H62.3216V12.9922L56.9192 22.4961C56.7864 22.7383 56.5989 22.9219 56.3567 23.0469C56.1223 23.1719 55.8684 23.2344 55.595 23.2344C55.3294 23.2344 55.0794 23.1719 54.845 23.0469C54.6184 22.9219 54.4388 22.7383 54.3059 22.4961L48.8802 12.9922V23H45.8333V7.49609C45.8333 7.14453 45.9348 6.83203 46.138 6.55859C46.3489 6.28516 46.6223 6.10156 46.9583 6.00781C47.1223 5.96875 47.2864 5.95703 47.4505 5.97266C47.6145 5.98047 47.7708 6.01563 47.9192 6.07812C48.0755 6.13281 48.2161 6.21484 48.3411 6.32422C48.4661 6.42578 48.5716 6.55078 48.6575 6.69922L55.595 18.7578L62.5325 6.69922C62.7122 6.40234 62.9583 6.19141 63.2708 6.06641C63.5911 5.94141 63.9231 5.92188 64.2669 6.00781C64.595 6.10156 64.8645 6.28516 65.0755 6.55859C65.2864 6.83203 65.3919 7.14453 65.3919 7.49609V23ZM82.9991 16.1328H73.378V13.0625H82.9991V16.1328ZM84.3702 23H73.378C72.9561 23 72.4952 22.9258 71.9952 22.7773C71.4952 22.6289 71.0303 22.3867 70.6006 22.0508C70.1787 21.707 69.8233 21.2656 69.5342 20.7266C69.253 20.1797 69.1123 19.5117 69.1123 18.7227V7.73047C69.1123 7.51953 69.1514 7.32031 69.2295 7.13281C69.3077 6.94531 69.4131 6.78125 69.5459 6.64062C69.6866 6.5 69.8506 6.39063 70.0381 6.3125C70.2256 6.23437 70.4287 6.19531 70.6475 6.19531H84.3702V9.24219H72.1592V18.7227C72.1592 19.1211 72.2647 19.4258 72.4756 19.6367C72.6866 19.8477 72.9952 19.9531 73.4014 19.9531H84.3702V23ZM104.356 21.6992C104.356 21.918 104.313 22.1211 104.227 22.3086C104.149 22.4961 104.04 22.6602 103.899 22.8008C103.766 22.9336 103.606 23.0391 103.419 23.1172C103.231 23.1953 103.032 23.2344 102.821 23.2344C102.634 23.2344 102.442 23.1992 102.247 23.1289C102.059 23.0586 101.891 22.9453 101.743 22.7891L90.6102 11.1641V23H87.5633V7.49609C87.5633 7.18359 87.6492 6.90234 87.8211 6.65234C88.0008 6.39453 88.2273 6.20313 88.5008 6.07812C88.7898 5.96094 89.0867 5.93359 89.3914 5.99609C89.6961 6.05078 89.9578 6.19141 90.1766 6.41797L101.309 18.0312V6.19531H104.356V21.6992ZM123.335 9.24219H116.62V23H113.573V9.24219H106.846V6.19531H123.335V9.24219ZM141.727 23H138.68V18.875H127.969V23H124.922V14.5977C124.922 13.3711 125.133 12.2422 125.555 11.2109C125.977 10.1797 126.563 9.29297 127.313 8.55078C128.063 7.80859 128.95 7.23047 129.973 6.81641C130.996 6.40234 132.114 6.19531 133.325 6.19531H140.192C140.403 6.19531 140.602 6.23437 140.789 6.3125C140.977 6.39063 141.141 6.5 141.282 6.64062C141.422 6.78125 141.532 6.94531 141.61 7.13281C141.688 7.32031 141.727 7.51953 141.727 7.73047V23ZM127.969 15.8281H138.68V9.24219H133.325C133.231 9.24219 133.032 9.25781 132.727 9.28906C132.43 9.3125 132.082 9.37891 131.684 9.48828C131.293 9.59766 130.879 9.76562 130.442 9.99219C130.004 10.2188 129.602 10.5312 129.235 10.9297C128.868 11.3281 128.563 11.8281 128.321 12.4297C128.086 13.0234 127.969 13.7461 127.969 14.5977V15.8281ZM160.565 23H154.541L154.225 23.8203C154.451 23.8203 154.705 23.8477 154.986 23.9023C155.275 23.957 155.545 24.0586 155.795 24.207C156.053 24.3633 156.268 24.5781 156.44 24.8516C156.611 25.125 156.697 25.4844 156.697 25.9297C156.697 26.375 156.584 26.75 156.357 27.0547C156.139 27.3594 155.85 27.6055 155.49 27.793C155.139 27.9805 154.74 28.1133 154.295 28.1914C153.857 28.2695 153.42 28.3086 152.982 28.3086C152.584 28.3086 152.252 28.2969 151.986 28.2734C151.721 28.2578 151.494 28.2344 151.307 28.2031C151.119 28.1797 150.951 28.1523 150.803 28.1211C150.662 28.0898 150.518 28.0625 150.369 28.0391V25.9766C150.682 26.125 151.041 26.25 151.447 26.3516C151.861 26.4531 152.283 26.5039 152.713 26.5039C153.158 26.5039 153.529 26.457 153.826 26.3633C154.123 26.2773 154.272 26.125 154.272 25.9062C154.272 25.7812 154.225 25.6797 154.131 25.6016C154.037 25.5234 153.92 25.4609 153.779 25.4141C153.639 25.375 153.49 25.3477 153.334 25.332C153.178 25.3164 153.037 25.3086 152.912 25.3086C152.732 25.3086 152.541 25.3203 152.338 25.3438C152.135 25.3672 151.955 25.4023 151.799 25.4492L152.713 23H149.572C149.291 23 148.986 22.9688 148.658 22.9062C148.338 22.8359 148.018 22.7305 147.697 22.5898C147.385 22.4492 147.084 22.2695 146.795 22.0508C146.506 21.8242 146.248 21.5547 146.022 21.2422C145.803 20.9219 145.627 20.5547 145.494 20.1406C145.361 19.7188 145.295 19.2461 145.295 18.7227V10.4727C145.295 10.1914 145.326 9.89062 145.389 9.57031C145.459 9.24219 145.565 8.92188 145.705 8.60938C145.846 8.28906 146.029 7.98438 146.256 7.69531C146.482 7.40625 146.752 7.15234 147.065 6.93359C147.385 6.70703 147.752 6.52734 148.166 6.39453C148.58 6.26172 149.049 6.19531 149.572 6.19531H160.565V9.24219H149.572C149.174 9.24219 148.869 9.34766 148.658 9.55859C148.447 9.76953 148.342 10.082 148.342 10.4961V18.7227C148.342 19.1133 148.447 19.418 148.658 19.6367C148.877 19.8477 149.182 19.9531 149.572 19.9531H160.565V23ZM180.176 23H177.129V18.875H166.418V23H163.371V14.5977C163.371 13.3711 163.582 12.2422 164.004 11.2109C164.426 10.1797 165.012 9.29297 165.762 8.55078C166.512 7.80859 167.398 7.23047 168.422 6.81641C169.445 6.40234 170.562 6.19531 171.773 6.19531H178.64C178.851 6.19531 179.051 6.23437 179.238 6.3125C179.426 6.39063 179.59 6.5 179.73 6.64062C179.871 6.78125 179.98 6.94531 180.058 7.13281C180.137 7.32031 180.176 7.51953 180.176 7.73047V23ZM166.418 15.8281H177.129V9.24219H171.773C171.68 9.24219 171.48 9.25781 171.176 9.28906C170.879 9.3125 170.531 9.37891 170.133 9.48828C169.742 9.59766 169.328 9.76562 168.89 9.99219C168.453 10.2188 168.051 10.5312 167.683 10.9297C167.316 11.3281 167.012 11.8281 166.769 12.4297C166.535 13.0234 166.418 13.7461 166.418 14.5977V15.8281ZM176.379 0.488281C176.379 1.23828 176.301 1.87109 176.144 2.38672C175.988 2.90234 175.777 3.32031 175.512 3.64062C175.246 3.95313 174.933 4.17969 174.574 4.32031C174.223 4.45312 173.848 4.51953 173.449 4.51953C173.027 4.51953 172.672 4.44531 172.383 4.29688C172.094 4.14844 171.836 3.98828 171.609 3.81641C171.383 3.63672 171.168 3.47266 170.965 3.32422C170.762 3.17578 170.535 3.10156 170.285 3.10156C170.051 3.10156 169.863 3.16016 169.723 3.27734C169.59 3.39453 169.488 3.53516 169.418 3.69922C169.348 3.85547 169.301 4.01172 169.277 4.16797C169.254 4.32422 169.238 4.44141 169.23 4.51953H167.156C167.156 3.85547 167.234 3.27344 167.39 2.77344C167.555 2.26563 167.769 1.84375 168.035 1.50781C168.308 1.16406 168.621 0.910156 168.973 0.746094C169.332 0.574219 169.711 0.488281 170.109 0.488281C170.476 0.488281 170.793 0.5625 171.058 0.710938C171.332 0.859375 171.586 1.02344 171.82 1.20312C172.055 1.375 172.281 1.53516 172.5 1.68359C172.726 1.82422 172.98 1.89453 173.262 1.89453C173.496 1.89453 173.68 1.83594 173.812 1.71875C173.953 1.60156 174.058 1.46875 174.129 1.32031C174.199 1.16406 174.246 1.00781 174.269 0.851562C174.293 0.695313 174.308 0.574219 174.316 0.488281H176.379ZM201.603 16.2031C201.603 17.2266 201.427 18.168 201.076 19.0273C200.724 19.8867 200.236 20.6289 199.611 21.2539C198.986 21.8789 198.244 22.3672 197.384 22.7188C196.533 23.0625 195.603 23.2344 194.595 23.2344H190.47C189.462 23.2344 188.529 23.0625 187.67 22.7188C186.81 22.3672 186.068 21.8789 185.443 21.2539C184.818 20.6289 184.326 19.8867 183.966 19.0273C183.615 18.168 183.439 17.2266 183.439 16.2031V12.9922C183.439 11.9766 183.615 11.0391 183.966 10.1797C184.326 9.3125 184.818 8.57031 185.443 7.95312C186.068 7.32812 186.81 6.83984 187.67 6.48828C188.529 6.13672 189.462 5.96094 190.47 5.96094H194.595C195.603 5.96094 196.533 6.13672 197.384 6.48828C198.244 6.83984 198.986 7.32812 199.611 7.95312C200.236 8.57031 200.724 9.3125 201.076 10.1797C201.427 11.0391 201.603 11.9766 201.603 12.9922V16.2031ZM198.556 12.9922C198.556 12.3906 198.459 11.8477 198.263 11.3633C198.076 10.8711 197.806 10.4531 197.455 10.1094C197.111 9.75781 196.693 9.48828 196.201 9.30078C195.716 9.10547 195.181 9.00781 194.595 9.00781H190.47C189.877 9.00781 189.334 9.10547 188.841 9.30078C188.357 9.48828 187.939 9.75781 187.587 10.1094C187.236 10.4531 186.962 10.8711 186.767 11.3633C186.58 11.8477 186.486 12.3906 186.486 12.9922V16.2031C186.486 16.8047 186.58 17.3516 186.767 17.8438C186.962 18.3281 187.236 18.7461 187.587 19.0977C187.939 19.4414 188.357 19.7109 188.841 19.9062C189.334 20.0938 189.877 20.1875 190.47 20.1875H194.572C195.166 20.1875 195.705 20.0938 196.189 19.9062C196.681 19.7109 197.103 19.4414 197.455 19.0977C197.806 18.7461 198.076 18.3281 198.263 17.8438C198.459 17.3516 198.556 16.8047 198.556 16.2031V12.9922Z" fill="black"/>
</svg>
